<?xml version="1.0" encoding="UTF-8" standalone="no"?>
<svg xmlns="http://www.w3.org/2000/svg" version="1.1" width="1000px" height="866.0254037844386px">
<polygon points="500.0,866.0254037844386 450.0,779.4228634059947 550.0,779.4228634059947" fill="#2ecc71" stroke="#2ecc71"/>
<polygon points="450.0,779.4228634059947 400.0,692.8203230275509 500.0,692.8203230275509" fill="#48d970" stroke="#48d970"/>
<polygon points="550.0,779.4228634059947 450.0,779.4228634059947 500.0,692.8203230275509" fill="#43da78" stroke="#43da78"/>
<polygon points="550.0,779.4228634059947 500.0,692.8203230275509 600.0,692.8203230275509" fill="#3cd37d" stroke="#3cd37d"/>
<polygon points="400.0,692.8203230275509 350.0,606.217782649107 450.0,606.217782649107" fill="#61e56c" stroke="#61e56c"/>
<polygon points="500.0,692.8203230275509 400.0,692.8203230275509 450.0,606.217782649107" fill="#5de876" stroke="#5de876"/>
<polygon points="500.0,692.8203230275509 450.0,606.217782649107 550.0,606.217782649107" fill="#57e67f" stroke="#57e67f"/>
<polygon points="600.0,692.8203230275509 500.0,692.8203230275509 550.0,606.217782649107" fill="#4fe185" stroke="#4fe185"/>
<polygon points="600.0,692.8203230275509 550.0,606.217782649107 650.0,606.217782649107" fill="#46d889" stroke="#46d889"/>
<polygon points="350.0,606.217782649107 300.0,519.6152422706632 400.0,519.6152422706632" fill="#7aef65" stroke="#7aef65"/>
<polygon points="450.0,606.217782649107 350.0,606.217782649107 400.0,519.6152422706632" fill="#76f371" stroke="#76f371"/>
<polygon points="450.0,606.217782649107 400.0,519.6152422706632 500.0,519.6152422706632" fill="#70f37b" stroke="#70f37b"/>
<polygon points="550.0,606.217782649107 450.0,606.217782649107 500.0,519.6152422706632" fill="#69f184" stroke="#69f184"/>
<polygon points="550.0,606.217782649107 500.0,519.6152422706632 600.0,519.6152422706632" fill="#61ec8b" stroke="#61ec8b"/>
<polygon points="650.0,606.217782649107 550.0,606.217782649107 600.0,519.6152422706632" fill="#58e491" stroke="#58e491"/>
<polygon points="650.0,606.217782649107 600.0,519.6152422706632 700.0,519.6152422706632" fill="#4ed994" stroke="#4ed994"/>
<polygon points="300.0,519.6152422706632 250.0,433.0127018922193 350.0,433.0127018922193" fill="#92f75c" stroke="#92f75c"/>
<polygon points="400.0,519.6152422706632 300.0,519.6152422706632 350.0,433.0127018922193" fill="#8efb69" stroke="#8efb69"/>
<polygon points="400.0,519.6152422706632 350.0,433.0127018922193 450.0,433.0127018922193" fill="#88fd74" stroke="#88fd74"/>
<polygon points="500.0,519.6152422706632 400.0,519.6152422706632 450.0,433.0127018922193" fill="#82fd7f" stroke="#82fd7f"/>
<polygon points="500.0,519.6152422706632 450.0,433.0127018922193 550.0,433.0127018922193" fill="#7afa89" stroke="#7afa89"/>
<polygon points="600.0,519.6152422706632 500.0,519.6152422706632 550.0,433.0127018922193" fill="#72f591" stroke="#72f591"/>
<polygon points="600.0,519.6152422706632 550.0,433.0127018922193 650.0,433.0127018922193" fill="#68ed97" stroke="#68ed97"/>
<polygon points="700.0,519.6152422706632 600.0,519.6152422706632 650.0,433.0127018922193" fill="#5ee39c" stroke="#5ee39c"/>
<polygon points="700.0,519.6152422706632 650.0,433.0127018922193 750.0,433.0127018922193" fill="#52d7a0" stroke="#52d7a0"/>
<polygon points="250.0,433.0127018922193 200.0,346.4101615137754 300.0,346.4101615137754" fill="#a9fc4f" stroke="#a9fc4f"/>
<polygon points="350.0,433.0127018922193 250.0,433.0127018922193 300.0,346.4101615137754" fill="#a5ff5d" stroke="#a5ff5d"/>
<polygon points="350.0,433.0127018922193 300.0,346.4101615137754 400.0,346.4101615137754" fill="#a0ff6a" stroke="#a0ff6a"/>
<polygon points="450.0,433.0127018922193 350.0,433.0127018922193 400.0,346.4101615137754" fill="#99ff76" stroke="#99ff76"/>
<polygon points="450.0,433.0127018922193 400.0,346.4101615137754 500.0,346.4101615137754" fill="#92ff81" stroke="#92ff81"/>
<polygon points="550.0,433.0127018922193 450.0,433.0127018922193 500.0,346.4101615137754" fill="#89ff8b" stroke="#89ff8b"/>
<polygon points="550.0,433.0127018922193 500.0,346.4101615137754 600.0,346.4101615137754" fill="#80fa95" stroke="#80fa95"/>
<polygon points="650.0,433.0127018922193 550.0,433.0127018922193 600.0,346.4101615137754" fill="#76f39c" stroke="#76f39c"/>
<polygon points="650.0,433.0127018922193 600.0,346.4101615137754 700.0,346.4101615137754" fill="#6be9a3" stroke="#6be9a3"/>
<polygon points="750.0,433.0127018922193 650.0,433.0127018922193 700.0,346.4101615137754" fill="#5fdea8" stroke="#5fdea8"/>
<polygon points="750.0,433.0127018922193 700.0,346.4101615137754 800.0,346.4101615137754" fill="#53d1ac" stroke="#53d1ac"/>
<polygon points="200.0,346.4101615137754 150.0,259.8076211353316 250.0,259.8076211353316" fill="#bfff40" stroke="#bfff40"/>
<polygon points="300.0,346.4101615137754 200.0,346.4101615137754 250.0,259.8076211353316" fill="#bbff4e" stroke="#bbff4e"/>
<polygon points="300.0,346.4101615137754 250.0,259.8076211353316 350.0,259.8076211353316" fill="#b6ff5c" stroke="#b6ff5c"/>
<polygon points="400.0,346.4101615137754 300.0,346.4101615137754 350.0,259.8076211353316" fill="#afff69" stroke="#afff69"/>
<polygon points="400.0,346.4101615137754 350.0,259.8076211353316 450.0,259.8076211353316" fill="#a7ff76" stroke="#a7ff76"/>
<polygon points="500.0,346.4101615137754 400.0,346.4101615137754 450.0,259.8076211353316" fill="#9fff81" stroke="#9fff81"/>
<polygon points="500.0,346.4101615137754 450.0,259.8076211353316 550.0,259.8076211353316" fill="#95ff8c" stroke="#95ff8c"/>
<polygon points="600.0,346.4101615137754 500.0,346.4101615137754 550.0,259.8076211353316" fill="#8bfc96" stroke="#8bfc96"/>
<polygon points="600.0,346.4101615137754 550.0,259.8076211353316 650.0,259.8076211353316" fill="#80f59f" stroke="#80f59f"/>
<polygon points="700.0,346.4101615137754 600.0,346.4101615137754 650.0,259.8076211353316" fill="#75eca8" stroke="#75eca8"/>
<polygon points="700.0,346.4101615137754 650.0,259.8076211353316 750.0,259.8076211353316" fill="#69e2ae" stroke="#69e2ae"/>
<polygon points="800.0,346.4101615137754 700.0,346.4101615137754 750.0,259.8076211353316" fill="#5dd5b4" stroke="#5dd5b4"/>
<polygon points="800.0,346.4101615137754 750.0,259.8076211353316 850.0,259.8076211353316" fill="#50c7b8" stroke="#50c7b8"/>
<polygon points="150.0,259.8076211353316 100.0,173.2050807568877 200.0,173.2050807568877" fill="#d5ff2d" stroke="#d5ff2d"/>
<polygon points="250.0,259.8076211353316 150.0,259.8076211353316 200.0,173.2050807568877" fill="#d1ff3c" stroke="#d1ff3c"/>
<polygon points="250.0,259.8076211353316 200.0,173.2050807568877 300.0,173.2050807568877" fill="#cbff4a" stroke="#cbff4a"/>
<polygon points="350.0,259.8076211353316 250.0,259.8076211353316 300.0,173.2050807568877" fill="#c3ff58" stroke="#c3ff58"/>
<polygon points="350.0,259.8076211353316 300.0,173.2050807568877 400.0,173.2050807568877" fill="#bbff66" stroke="#bbff66"/>
<polygon points="450.0,259.8076211353316 350.0,259.8076211353316 400.0,173.2050807568877" fill="#b2ff73" stroke="#b2ff73"/>
<polygon points="450.0,259.8076211353316 400.0,173.2050807568877 500.0,173.2050807568877" fill="#a8ff7f" stroke="#a8ff7f"/>
<polygon points="550.0,259.8076211353316 450.0,259.8076211353316 500.0,173.2050807568877" fill="#9eff8b" stroke="#9eff8b"/>
<polygon points="550.0,259.8076211353316 500.0,173.2050807568877 600.0,173.2050807568877" fill="#93fa96" stroke="#93fa96"/>
<polygon points="650.0,259.8076211353316 550.0,259.8076211353316 600.0,173.2050807568877" fill="#88f2a0" stroke="#88f2a0"/>
<polygon points="650.0,259.8076211353316 600.0,173.2050807568877 700.0,173.2050807568877" fill="#7ceaa9" stroke="#7ceaa9"/>
<polygon points="750.0,259.8076211353316 650.0,259.8076211353316 700.0,173.2050807568877" fill="#70e0b2" stroke="#70e0b2"/>
<polygon points="750.0,259.8076211353316 700.0,173.2050807568877 800.0,173.2050807568877" fill="#64d5b9" stroke="#64d5b9"/>
<polygon points="850.0,259.8076211353316 750.0,259.8076211353316 800.0,173.2050807568877" fill="#57c9bf" stroke="#57c9bf"/>
<polygon points="850.0,259.8076211353316 800.0,173.2050807568877 900.0,173.2050807568877" fill="#4abbc3" stroke="#4abbc3"/>
<polygon points="100.0,173.2050807568877 50.0,86.60254037844379 150.0,86.60254037844379" fill="#eaff18" stroke="#eaff18"/>
<polygon points="200.0,173.2050807568877 100.0,173.2050807568877 150.0,86.60254037844379" fill="#e5ff27" stroke="#e5ff27"/>
<polygon points="200.0,173.2050807568877 150.0,86.60254037844379 250.0,86.60254037844379" fill="#deff35" stroke="#deff35"/>
<polygon points="300.0,173.2050807568877 200.0,173.2050807568877 250.0,86.60254037844379" fill="#d5ff44" stroke="#d5ff44"/>
<polygon points="300.0,173.2050807568877 250.0,86.60254037844379 350.0,86.60254037844379" fill="#cbff52" stroke="#cbff52"/>
<polygon points="400.0,173.2050807568877 300.0,173.2050807568877 350.0,86.60254037844379" fill="#c1ff5f" stroke="#c1ff5f"/>
<polygon points="400.0,173.2050807568877 350.0,86.60254037844379 450.0,86.60254037844379" fill="#b7ff6d" stroke="#b7ff6d"/>
<polygon points="500.0,173.2050807568877 400.0,173.2050807568877 450.0,86.60254037844379" fill="#acfc79" stroke="#acfc79"/>
<polygon points="500.0,173.2050807568877 450.0,86.60254037844379 550.0,86.60254037844379" fill="#a1f786" stroke="#a1f786"/>
<polygon points="600.0,173.2050807568877 500.0,173.2050807568877 550.0,86.60254037844379" fill="#96f191" stroke="#96f191"/>
<polygon points="600.0,173.2050807568877 550.0,86.60254037844379 650.0,86.60254037844379" fill="#8bea9c" stroke="#8bea9c"/>
<polygon points="700.0,173.2050807568877 600.0,173.2050807568877 650.0,86.60254037844379" fill="#7fe2a7" stroke="#7fe2a7"/>
<polygon points="700.0,173.2050807568877 650.0,86.60254037844379 750.0,86.60254037844379" fill="#73d9b1" stroke="#73d9b1"/>
<polygon points="800.0,173.2050807568877 700.0,173.2050807568877 750.0,86.60254037844379" fill="#67cfba" stroke="#67cfba"/>
<polygon points="800.0,173.2050807568877 750.0,86.60254037844379 850.0,86.60254037844379" fill="#5ac5c3" stroke="#5ac5c3"/>
<polygon points="900.0,173.2050807568877 800.0,173.2050807568877 850.0,86.60254037844379" fill="#4eb9ca" stroke="#4eb9ca"/>
<polygon points="900.0,173.2050807568877 850.0,86.60254037844379 950.0,86.60254037844379" fill="#40abcf" stroke="#40abcf"/>
<polygon points="50.0,86.60254037844379 0.0,0.0 100.0,0.0" fill="#ffff00" stroke="#ffff00"/>
<polygon points="150.0,86.60254037844379 50.0,86.60254037844379 100.0,0.0" fill="#f5ff0f" stroke="#f5ff0f"/>
<polygon points="150.0,86.60254037844379 100.0,0.0 200.0,0.0" fill="#ebfe1e" stroke="#ebfe1e"/>
<polygon points="250.0,86.60254037844379 150.0,86.60254037844379 200.0,0.0" fill="#e0fd2d" stroke="#e0fd2d"/>
<polygon points="250.0,86.60254037844379 200.0,0.0 300.0,0.0" fill="#d6fb3b" stroke="#d6fb3b"/>
<polygon points="350.0,86.60254037844379 250.0,86.60254037844379 300.0,0.0" fill="#cbf849" stroke="#cbf849"/>
<polygon points="350.0,86.60254037844379 300.0,0.0 400.0,0.0" fill="#c1f556" stroke="#c1f556"/>
<polygon points="450.0,86.60254037844379 350.0,86.60254037844379 400.0,0.0" fill="#b6f164" stroke="#b6f164"/>
<polygon points="450.0,86.60254037844379 400.0,0.0 500.0,0.0" fill="#abec70" stroke="#abec70"/>
<polygon points="550.0,86.60254037844379 450.0,86.60254037844379 500.0,0.0" fill="#a0e77d" stroke="#a0e77d"/>
<polygon points="550.0,86.60254037844379 500.0,0.0 600.0,0.0" fill="#94e189" stroke="#94e189"/>
<polygon points="650.0,86.60254037844379 550.0,86.60254037844379 600.0,0.0" fill="#89da94" stroke="#89da94"/>
<polygon points="650.0,86.60254037844379 600.0,0.0 700.0,0.0" fill="#7dd29f" stroke="#7dd29f"/>
<polygon points="750.0,86.60254037844379 650.0,86.60254037844379 700.0,0.0" fill="#71caaa" stroke="#71caaa"/>
<polygon points="750.0,86.60254037844379 700.0,0.0 800.0,0.0" fill="#65c1b5" stroke="#65c1b5"/>
<polygon points="850.0,86.60254037844379 750.0,86.60254037844379 800.0,0.0" fill="#59b8bf" stroke="#59b8bf"/>
<polygon points="850.0,86.60254037844379 800.0,0.0 900.0,0.0" fill="#4daec8" stroke="#4daec8"/>
<polygon points="950.0,86.60254037844379 850.0,86.60254037844379 900.0,0.0" fill="#41a3d2" stroke="#41a3d2"/>
<polygon points="950.0,86.60254037844379 900.0,0.0 1000.0,0.0" fill="#3498db" stroke="#3498db"/>
</svg>
